<svg width="14" height="14" xmlns="http://www.w3.org/2000/svg">
  <path d="M9.22218 3.03263c-1.70955-1.70955-4.48-1.70955-6.18955 0-1.70955 1.70954-1.70955 4.48 0 6.18955 1.70954 1.70954 4.48 1.70954 6.18955 0 1.70954-1.70955 1.70954-4.48 0-6.18955m4.55178 10.74133c-.34226.34139-.89635.34139-1.2386 0L9.7789 11.01663c-2.4002 1.79445-5.80353 1.62464-7.984-.55672-2.3932-2.39231-2.3932-6.27183 0-8.66502 2.3923-2.39319 6.2727-2.39319 8.66501 0 2.18136 2.18048 2.35117 5.58381.55672 7.984l2.75733 2.75734c.34139.34138.34139.89547 0 1.23773" fill="#DFE2E5" fill-rule="evenodd"/>
</svg>
